<svg width="29" height="29" viewBox="0 0 29 29" fill="none" xmlns="http://www.w3.org/2000/svg">
<path d="M21.7724 2.72042L21.7868 2.70587C21.84 2.65144 21.9036 2.60819 21.9737 2.57867C22.0439 2.54914 22.1192 2.53394 22.1954 2.53394C22.2715 2.53394 22.3468 2.54914 22.417 2.57867L22.9988 1.19609L22.417 2.57867C22.4872 2.60819 22.5507 2.65144 22.6039 2.70586L22.6039 2.7059L22.6128 2.71485L26.2792 6.40199L26.2792 6.40201L26.2866 6.40932C26.3401 6.46244 26.3826 6.52564 26.4116 6.59528C26.4407 6.66491 26.4556 6.7396 26.4556 6.81503C26.4556 6.89047 26.4407 6.96516 26.4116 7.03479C26.3826 7.10443 26.3401 7.16763 26.2866 7.22075L26.2865 7.22073L26.2796 7.22767L9.57245 24.0163L3.19918 25.8009L4.9837 19.4276L21.7724 2.72042Z" stroke="#0148FF" stroke-width="3" stroke-linecap="round" stroke-linejoin="round"/>
</svg>
